<svg width="37" height="27" viewBox="0 0 37 27" fill="none" xmlns="http://www.w3.org/2000/svg">
<path d="M8 25L29 2" stroke="#8D8888" stroke-width="3" stroke-linecap="round"/>
<path d="M18.5 3C10.969 3 3.9292 7.00826 0 13.5C3.9292 19.9917 10.969 24 18.5 24C26.031 24 33.0708 19.9917 37 13.5C33.0708 7.00826 26.031 3 18.5 3ZM18.5 21.2609C14.2388 21.2609 10.7689 17.7776 10.7689 13.5C10.7689 9.22239 14.2388 5.73913 18.5 5.73913C22.7612 5.73913 26.2311 9.22239 26.2311 13.5C26.2311 17.7776 22.7612 21.2609 18.5 21.2609ZM18.5 7.56522C15.2393 7.56522 12.588 10.2267 12.588 13.5C12.588 16.7733 15.2393 19.4348 18.5 19.4348C21.7607 19.4348 24.412 16.7733 24.412 13.5C24.412 10.2267 21.7607 7.56522 18.5 7.56522ZM18.5 11.2174C17.9543 11.2174 17.4631 11.4183 17.0675 11.7424L16.7491 12.062C16.4263 12.4591 16.2262 12.9522 16.2262 13.5C16.2262 14.0022 15.8169 14.413 15.3166 14.413C14.8164 14.413 14.4071 14.0022 14.4071 13.5C14.4071 11.2357 16.2443 9.3913 18.5 9.3913C19.0002 9.3913 19.4095 9.80217 19.4095 10.3043C19.4095 10.8065 19.0002 11.2174 18.5 11.2174Z" fill="#8D8888"/>
</svg>
