<svg width="37" height="21" viewBox="0 0 37 21" fill="none" xmlns="http://www.w3.org/2000/svg">
<path d="M18.5 0C10.969 0 3.9292 4.00826 0 10.5C3.9292 16.9917 10.969 21 18.5 21C26.031 21 33.0708 16.9917 37 10.5C33.0708 4.00826 26.031 0 18.5 0ZM18.5 18.2609C14.2388 18.2609 10.7689 14.7776 10.7689 10.5C10.7689 6.22239 14.2388 2.73913 18.5 2.73913C22.7612 2.73913 26.2311 6.22239 26.2311 10.5C26.2311 14.7776 22.7612 18.2609 18.5 18.2609ZM18.5 4.56522C15.2393 4.56522 12.588 7.22674 12.588 10.5C12.588 13.7733 15.2393 16.4348 18.5 16.4348C21.7607 16.4348 24.412 13.7733 24.412 10.5C24.412 7.22674 21.7607 4.56522 18.5 4.56522ZM18.5 8.21739C17.9543 8.21739 17.4631 8.41826 17.0675 8.74239L16.7491 9.06196C16.4263 9.45913 16.2262 9.95217 16.2262 10.5C16.2262 11.0022 15.8169 11.413 15.3166 11.413C14.8164 11.413 14.4071 11.0022 14.4071 10.5C14.4071 8.23565 16.2443 6.3913 18.5 6.3913C19.0002 6.3913 19.4095 6.80217 19.4095 7.30435C19.4095 7.80652 19.0002 8.21739 18.5 8.21739Z" fill="#8D8888"/>
</svg>
